# xmcd CD database file
#
# Track frame offsets:
#	150
#	13184
#	35793
#	62229
#	88169
#	104030
#	123906
#	141956
#	160415
#	171672
#	192805
#	208176
#
# Disc length: 2966 seconds
#
# Revision: 0
# Processed by: cddbd v1.5.1PL0 Copyright (c) Steve Scherf et al.
# Submitted via: CDex 1.51
#
DISCID=bc0b940c
DTITLE=Janet Planet - More Beautiful Then Planned
DYEAR=1900
DGENRE=Jazz
TTITLE0=Hey John
TTITLE1=(Tonight) The Moon Belongs To You
TTITLE2=Come Rain or Come Shine
TTITLE3=I Cover The Waterfront
TTITLE4=More Love
TTITLE5=Another Lonely Spring
TTITLE6=It Had To Be You
TTITLE7=Blues In The Night
TTITLE8=I Like You You're Nice
TTITLE9=Soliloquy
TTITLE10=Waters Of March
TTITLE11=I Raise My Glass
EXTD=
EXTT0=
EXTT1=
EXTT2=
EXTT3=
EXTT4=
EXTT5=
EXTT6=
EXTT7=
EXTT8=
EXTT9=
EXTT10=
EXTT11=
PLAYORDER=
